# xmcd
#
# Track frame offsets:
#	150
#	11418
#	22118
#	38115
#	50623
#	62720
#	73113
#	86628
#	97745
#	109820
#	123770
#	137005
#	145505
#	157868
#	169523
#	179990
#	193298
#	205985
#	219528
#	234435
#	246643
#	261748
#	273473
#	285360
#	297803
#
# Disc length: 4142 seconds
#
# Revision: 1
# Processed by: cddbd v1.5.2PL0 Copyright (c) Steve Scherf et al.
# Submitted via: audiograbber 1.83.01
#
DISCID=7b102c19
DTITLE=Keely Smith - Swing You Loves SWING YOU LOVERS - with Gerald Dolin and h
DTITLE=is orchestra/DEARLY BELOVED - with George Greeley and his orchestra
DYEAR=1900
DGENRE=
TTITLE0=Swing,You Lovers
TTITLE1=I Love to Love
TTITLE2=Misty(Burke,Garner)
TTITLE3=I Love You
TTITLE4=If I Could Be With You(One Hour Tonight)
TTITLE5=Hello,Young Lovers(Hammerstein,Rodgers)
TTITLE6=All or Nothing at All(Altman,Lawrence
TTITLE7=All Night Long
TTITLE8=Òalk to Me
TTITLE9=Everybody Loves a Lover(Adler,Ross)
TTITLE10=Òhey Say It`s Wonderful
TTITLE11=At Long Last Love(Porter)
TTITLE12=Dearly Beloved(Kern,Mercer)
TTITLE13=Close
TTITLE14=Òea Leaves
TTITLE15=Help!
TTITLE16=Òake My Hand
TTITLE17=Here in My Heart(Borrelly,Genaro,Levinson)
TTITLE18=Finally
TTITLE19=Great Expectations
TTITLE20=La-Bou-Lau-A
TTITLE21=You`ll Never Walk Alon(Hammerstein,Rodgers)
TTITLE22=Òwilight Time(Dunn,Nevins,Ram)
TTITLE23=Clearance Sale
TTITLE24=Young in Years
EXTD=
EXTT0=
EXTT1=
EXTT2=
EXTT3=
EXTT4=
EXTT5=
EXTT6=
EXTT7=
EXTT8=
EXTT9=
EXTT10=
EXTT11=
EXTT12=
EXTT13=
EXTT14=
EXTT15=
EXTT16=
EXTT17=
EXTT18=
EXTT19=
EXTT20=
EXTT21=
EXTT22=
EXTT23=
EXTT24=
PLAYORDER=
